<mxfile host="app.diagrams.net" modified="2023-08-22T00:58:16.320Z" agent="Mozilla/5.0 (Windows NT 10.0; Win64; x64) AppleWebKit/537.36 (KHTML, like Gecko) Chrome/114.0.0.0 Safari/537.36 OPR/100.0.0.0" etag="_eS01qRsLLACcOIzPzCt" version="21.6.7" type="github">
  <diagram name="PÃ¡gina-1" id="hLXXU4oI-Rbcapt82Tue">
    <mxGraphModel dx="1393" dy="766" grid="1" gridSize="10" guides="1" tooltips="1" connect="1" arrows="1" fold="1" page="1" pageScale="1" pageWidth="827" pageHeight="1169" math="0" shadow="0">
      <root>
        <mxCell id="0" />
        <mxCell id="1" parent="0" />
        <mxCell id="yPrxOtmndg39pOsjJb7E-36" value="" style="childLayout=tableLayout;recursiveResize=0;shadow=0;fillColor=none;" vertex="1" parent="1">
          <mxGeometry x="30" y="230" width="760" height="110" as="geometry" />
        </mxCell>
        <mxCell id="yPrxOtmndg39pOsjJb7E-37" value="" style="shape=tableRow;horizontal=0;startSize=0;swimlaneHead=0;swimlaneBody=0;top=0;left=0;bottom=0;right=0;dropTarget=0;collapsible=0;recursiveResize=0;expand=0;fontStyle=0;fillColor=none;strokeColor=inherit;" vertex="1" parent="yPrxOtmndg39pOsjJb7E-36">
          <mxGeometry width="760" height="37" as="geometry" />
        </mxCell>
        <mxCell id="yPrxOtmndg39pOsjJb7E-38" value="" style="connectable=0;recursiveResize=0;strokeColor=inherit;fillColor=none;align=center;whiteSpace=wrap;html=1;" vertex="1" parent="yPrxOtmndg39pOsjJb7E-37">
          <mxGeometry width="320" height="37" as="geometry">
            <mxRectangle width="320" height="37" as="alternateBounds" />
          </mxGeometry>
        </mxCell>
        <mxCell id="yPrxOtmndg39pOsjJb7E-39" value="" style="connectable=0;recursiveResize=0;strokeColor=inherit;fillColor=none;align=center;whiteSpace=wrap;html=1;" vertex="1" parent="yPrxOtmndg39pOsjJb7E-37">
          <mxGeometry x="320" width="187" height="37" as="geometry">
            <mxRectangle width="187" height="37" as="alternateBounds" />
          </mxGeometry>
        </mxCell>
        <mxCell id="yPrxOtmndg39pOsjJb7E-40" value="" style="connectable=0;recursiveResize=0;strokeColor=inherit;fillColor=none;align=center;whiteSpace=wrap;html=1;" vertex="1" parent="yPrxOtmndg39pOsjJb7E-37">
          <mxGeometry x="507" width="253" height="37" as="geometry">
            <mxRectangle width="253" height="37" as="alternateBounds" />
          </mxGeometry>
        </mxCell>
        <mxCell id="yPrxOtmndg39pOsjJb7E-41" style="shape=tableRow;horizontal=0;startSize=0;swimlaneHead=0;swimlaneBody=0;top=0;left=0;bottom=0;right=0;dropTarget=0;collapsible=0;recursiveResize=0;expand=0;fontStyle=0;fillColor=none;strokeColor=inherit;" vertex="1" parent="yPrxOtmndg39pOsjJb7E-36">
          <mxGeometry y="37" width="760" height="36" as="geometry" />
        </mxCell>
        <mxCell id="yPrxOtmndg39pOsjJb7E-42" value="" style="connectable=0;recursiveResize=0;strokeColor=inherit;fillColor=none;align=center;whiteSpace=wrap;html=1;" vertex="1" parent="yPrxOtmndg39pOsjJb7E-41">
          <mxGeometry width="320" height="36" as="geometry">
            <mxRectangle width="320" height="36" as="alternateBounds" />
          </mxGeometry>
        </mxCell>
        <mxCell id="yPrxOtmndg39pOsjJb7E-43" value="" style="connectable=0;recursiveResize=0;strokeColor=inherit;fillColor=none;align=center;whiteSpace=wrap;html=1;" vertex="1" parent="yPrxOtmndg39pOsjJb7E-41">
          <mxGeometry x="320" width="187" height="36" as="geometry">
            <mxRectangle width="187" height="36" as="alternateBounds" />
          </mxGeometry>
        </mxCell>
        <mxCell id="yPrxOtmndg39pOsjJb7E-44" value="" style="connectable=0;recursiveResize=0;strokeColor=inherit;fillColor=none;align=center;whiteSpace=wrap;html=1;" vertex="1" parent="yPrxOtmndg39pOsjJb7E-41">
          <mxGeometry x="507" width="253" height="36" as="geometry">
            <mxRectangle width="253" height="36" as="alternateBounds" />
          </mxGeometry>
        </mxCell>
        <mxCell id="yPrxOtmndg39pOsjJb7E-45" style="shape=tableRow;horizontal=0;startSize=0;swimlaneHead=0;swimlaneBody=0;top=0;left=0;bottom=0;right=0;dropTarget=0;collapsible=0;recursiveResize=0;expand=0;fontStyle=0;fillColor=none;strokeColor=inherit;" vertex="1" parent="yPrxOtmndg39pOsjJb7E-36">
          <mxGeometry y="73" width="760" height="37" as="geometry" />
        </mxCell>
        <mxCell id="yPrxOtmndg39pOsjJb7E-46" value="" style="connectable=0;recursiveResize=0;strokeColor=inherit;fillColor=none;align=center;whiteSpace=wrap;html=1;" vertex="1" parent="yPrxOtmndg39pOsjJb7E-45">
          <mxGeometry width="320" height="37" as="geometry">
            <mxRectangle width="320" height="37" as="alternateBounds" />
          </mxGeometry>
        </mxCell>
        <mxCell id="yPrxOtmndg39pOsjJb7E-47" value="" style="connectable=0;recursiveResize=0;strokeColor=inherit;fillColor=none;align=center;whiteSpace=wrap;html=1;" vertex="1" parent="yPrxOtmndg39pOsjJb7E-45">
          <mxGeometry x="320" width="187" height="37" as="geometry">
            <mxRectangle width="187" height="37" as="alternateBounds" />
          </mxGeometry>
        </mxCell>
        <mxCell id="yPrxOtmndg39pOsjJb7E-48" value="" style="connectable=0;recursiveResize=0;strokeColor=inherit;fillColor=none;align=center;whiteSpace=wrap;html=1;" vertex="1" parent="yPrxOtmndg39pOsjJb7E-45">
          <mxGeometry x="507" width="253" height="37" as="geometry">
            <mxRectangle width="253" height="37" as="alternateBounds" />
          </mxGeometry>
        </mxCell>
        <mxCell id="yPrxOtmndg39pOsjJb7E-49" value="" style="childLayout=tableLayout;recursiveResize=0;shadow=0;fillColor=none;" vertex="1" parent="1">
          <mxGeometry x="30" y="340" width="760" height="130" as="geometry" />
        </mxCell>
        <mxCell id="yPrxOtmndg39pOsjJb7E-50" value="" style="shape=tableRow;horizontal=0;startSize=0;swimlaneHead=0;swimlaneBody=0;top=0;left=0;bottom=0;right=0;dropTarget=0;collapsible=0;recursiveResize=0;expand=0;fontStyle=0;fillColor=none;strokeColor=inherit;" vertex="1" parent="yPrxOtmndg39pOsjJb7E-49">
          <mxGeometry width="760" height="44" as="geometry" />
        </mxCell>
        <mxCell id="yPrxOtmndg39pOsjJb7E-51" value="" style="connectable=0;recursiveResize=0;strokeColor=inherit;fillColor=none;align=center;whiteSpace=wrap;html=1;" vertex="1" parent="yPrxOtmndg39pOsjJb7E-50">
          <mxGeometry width="320" height="44" as="geometry">
            <mxRectangle width="320" height="44" as="alternateBounds" />
          </mxGeometry>
        </mxCell>
        <mxCell id="yPrxOtmndg39pOsjJb7E-52" value="" style="connectable=0;recursiveResize=0;strokeColor=inherit;fillColor=none;align=center;whiteSpace=wrap;html=1;" vertex="1" parent="yPrxOtmndg39pOsjJb7E-50">
          <mxGeometry x="320" width="187" height="44" as="geometry">
            <mxRectangle width="187" height="44" as="alternateBounds" />
          </mxGeometry>
        </mxCell>
        <mxCell id="yPrxOtmndg39pOsjJb7E-53" value="" style="connectable=0;recursiveResize=0;strokeColor=inherit;fillColor=none;align=center;whiteSpace=wrap;html=1;" vertex="1" parent="yPrxOtmndg39pOsjJb7E-50">
          <mxGeometry x="507" width="253" height="44" as="geometry">
            <mxRectangle width="253" height="44" as="alternateBounds" />
          </mxGeometry>
        </mxCell>
        <mxCell id="yPrxOtmndg39pOsjJb7E-54" style="shape=tableRow;horizontal=0;startSize=0;swimlaneHead=0;swimlaneBody=0;top=0;left=0;bottom=0;right=0;dropTarget=0;collapsible=0;recursiveResize=0;expand=0;fontStyle=0;fillColor=none;strokeColor=inherit;" vertex="1" parent="yPrxOtmndg39pOsjJb7E-49">
          <mxGeometry y="44" width="760" height="42" as="geometry" />
        </mxCell>
        <mxCell id="yPrxOtmndg39pOsjJb7E-55" value="" style="connectable=0;recursiveResize=0;strokeColor=inherit;fillColor=none;align=center;whiteSpace=wrap;html=1;" vertex="1" parent="yPrxOtmndg39pOsjJb7E-54">
          <mxGeometry width="320" height="42" as="geometry">
            <mxRectangle width="320" height="42" as="alternateBounds" />
          </mxGeometry>
        </mxCell>
        <mxCell id="yPrxOtmndg39pOsjJb7E-56" value="" style="connectable=0;recursiveResize=0;strokeColor=inherit;fillColor=none;align=center;whiteSpace=wrap;html=1;" vertex="1" parent="yPrxOtmndg39pOsjJb7E-54">
          <mxGeometry x="320" width="187" height="42" as="geometry">
            <mxRectangle width="187" height="42" as="alternateBounds" />
          </mxGeometry>
        </mxCell>
        <mxCell id="yPrxOtmndg39pOsjJb7E-57" value="" style="connectable=0;recursiveResize=0;strokeColor=inherit;fillColor=none;align=center;whiteSpace=wrap;html=1;" vertex="1" parent="yPrxOtmndg39pOsjJb7E-54">
          <mxGeometry x="507" width="253" height="42" as="geometry">
            <mxRectangle width="253" height="42" as="alternateBounds" />
          </mxGeometry>
        </mxCell>
        <mxCell id="yPrxOtmndg39pOsjJb7E-58" style="shape=tableRow;horizontal=0;startSize=0;swimlaneHead=0;swimlaneBody=0;top=0;left=0;bottom=0;right=0;dropTarget=0;collapsible=0;recursiveResize=0;expand=0;fontStyle=0;fillColor=none;strokeColor=inherit;" vertex="1" parent="yPrxOtmndg39pOsjJb7E-49">
          <mxGeometry y="86" width="760" height="44" as="geometry" />
        </mxCell>
        <mxCell id="yPrxOtmndg39pOsjJb7E-59" value="" style="connectable=0;recursiveResize=0;strokeColor=inherit;fillColor=none;align=center;whiteSpace=wrap;html=1;" vertex="1" parent="yPrxOtmndg39pOsjJb7E-58">
          <mxGeometry width="320" height="44" as="geometry">
            <mxRectangle width="320" height="44" as="alternateBounds" />
          </mxGeometry>
        </mxCell>
        <mxCell id="yPrxOtmndg39pOsjJb7E-60" value="" style="connectable=0;recursiveResize=0;strokeColor=inherit;fillColor=none;align=center;whiteSpace=wrap;html=1;" vertex="1" parent="yPrxOtmndg39pOsjJb7E-58">
          <mxGeometry x="320" width="187" height="44" as="geometry">
            <mxRectangle width="187" height="44" as="alternateBounds" />
          </mxGeometry>
        </mxCell>
        <mxCell id="yPrxOtmndg39pOsjJb7E-61" value="" style="connectable=0;recursiveResize=0;strokeColor=inherit;fillColor=none;align=center;whiteSpace=wrap;html=1;" vertex="1" parent="yPrxOtmndg39pOsjJb7E-58">
          <mxGeometry x="507" width="253" height="44" as="geometry">
            <mxRectangle width="253" height="44" as="alternateBounds" />
          </mxGeometry>
        </mxCell>
        <mxCell id="yPrxOtmndg39pOsjJb7E-62" value="" style="childLayout=tableLayout;recursiveResize=0;shadow=0;fillColor=none;" vertex="1" parent="1">
          <mxGeometry x="30" y="470" width="760" height="130" as="geometry" />
        </mxCell>
        <mxCell id="yPrxOtmndg39pOsjJb7E-63" value="" style="shape=tableRow;horizontal=0;startSize=0;swimlaneHead=0;swimlaneBody=0;top=0;left=0;bottom=0;right=0;dropTarget=0;collapsible=0;recursiveResize=0;expand=0;fontStyle=0;fillColor=none;strokeColor=inherit;" vertex="1" parent="yPrxOtmndg39pOsjJb7E-62">
          <mxGeometry width="760" height="44" as="geometry" />
        </mxCell>
        <mxCell id="yPrxOtmndg39pOsjJb7E-64" value="" style="connectable=0;recursiveResize=0;strokeColor=inherit;fillColor=none;align=center;whiteSpace=wrap;html=1;" vertex="1" parent="yPrxOtmndg39pOsjJb7E-63">
          <mxGeometry width="320" height="44" as="geometry">
            <mxRectangle width="320" height="44" as="alternateBounds" />
          </mxGeometry>
        </mxCell>
        <mxCell id="yPrxOtmndg39pOsjJb7E-65" value="" style="connectable=0;recursiveResize=0;strokeColor=inherit;fillColor=none;align=center;whiteSpace=wrap;html=1;" vertex="1" parent="yPrxOtmndg39pOsjJb7E-63">
          <mxGeometry x="320" width="187" height="44" as="geometry">
            <mxRectangle width="187" height="44" as="alternateBounds" />
          </mxGeometry>
        </mxCell>
        <mxCell id="yPrxOtmndg39pOsjJb7E-66" value="" style="connectable=0;recursiveResize=0;strokeColor=inherit;fillColor=none;align=center;whiteSpace=wrap;html=1;" vertex="1" parent="yPrxOtmndg39pOsjJb7E-63">
          <mxGeometry x="507" width="253" height="44" as="geometry">
            <mxRectangle width="253" height="44" as="alternateBounds" />
          </mxGeometry>
        </mxCell>
        <mxCell id="yPrxOtmndg39pOsjJb7E-67" style="shape=tableRow;horizontal=0;startSize=0;swimlaneHead=0;swimlaneBody=0;top=0;left=0;bottom=0;right=0;dropTarget=0;collapsible=0;recursiveResize=0;expand=0;fontStyle=0;fillColor=none;strokeColor=inherit;" vertex="1" parent="yPrxOtmndg39pOsjJb7E-62">
          <mxGeometry y="44" width="760" height="42" as="geometry" />
        </mxCell>
        <mxCell id="yPrxOtmndg39pOsjJb7E-68" value="" style="connectable=0;recursiveResize=0;strokeColor=inherit;fillColor=none;align=center;whiteSpace=wrap;html=1;" vertex="1" parent="yPrxOtmndg39pOsjJb7E-67">
          <mxGeometry width="320" height="42" as="geometry">
            <mxRectangle width="320" height="42" as="alternateBounds" />
          </mxGeometry>
        </mxCell>
        <mxCell id="yPrxOtmndg39pOsjJb7E-69" value="" style="connectable=0;recursiveResize=0;strokeColor=inherit;fillColor=none;align=center;whiteSpace=wrap;html=1;" vertex="1" parent="yPrxOtmndg39pOsjJb7E-67">
          <mxGeometry x="320" width="187" height="42" as="geometry">
            <mxRectangle width="187" height="42" as="alternateBounds" />
          </mxGeometry>
        </mxCell>
        <mxCell id="yPrxOtmndg39pOsjJb7E-70" value="" style="connectable=0;recursiveResize=0;strokeColor=inherit;fillColor=none;align=center;whiteSpace=wrap;html=1;" vertex="1" parent="yPrxOtmndg39pOsjJb7E-67">
          <mxGeometry x="507" width="253" height="42" as="geometry">
            <mxRectangle width="253" height="42" as="alternateBounds" />
          </mxGeometry>
        </mxCell>
        <mxCell id="yPrxOtmndg39pOsjJb7E-71" style="shape=tableRow;horizontal=0;startSize=0;swimlaneHead=0;swimlaneBody=0;top=0;left=0;bottom=0;right=0;dropTarget=0;collapsible=0;recursiveResize=0;expand=0;fontStyle=0;fillColor=none;strokeColor=inherit;" vertex="1" parent="yPrxOtmndg39pOsjJb7E-62">
          <mxGeometry y="86" width="760" height="44" as="geometry" />
        </mxCell>
        <mxCell id="yPrxOtmndg39pOsjJb7E-72" value="" style="connectable=0;recursiveResize=0;strokeColor=inherit;fillColor=none;align=center;whiteSpace=wrap;html=1;" vertex="1" parent="yPrxOtmndg39pOsjJb7E-71">
          <mxGeometry width="320" height="44" as="geometry">
            <mxRectangle width="320" height="44" as="alternateBounds" />
          </mxGeometry>
        </mxCell>
        <mxCell id="yPrxOtmndg39pOsjJb7E-73" value="" style="connectable=0;recursiveResize=0;strokeColor=inherit;fillColor=none;align=center;whiteSpace=wrap;html=1;" vertex="1" parent="yPrxOtmndg39pOsjJb7E-71">
          <mxGeometry x="320" width="187" height="44" as="geometry">
            <mxRectangle width="187" height="44" as="alternateBounds" />
          </mxGeometry>
        </mxCell>
        <mxCell id="yPrxOtmndg39pOsjJb7E-74" value="" style="connectable=0;recursiveResize=0;strokeColor=inherit;fillColor=none;align=center;whiteSpace=wrap;html=1;" vertex="1" parent="yPrxOtmndg39pOsjJb7E-71">
          <mxGeometry x="507" width="253" height="44" as="geometry">
            <mxRectangle width="253" height="44" as="alternateBounds" />
          </mxGeometry>
        </mxCell>
        <mxCell id="yPrxOtmndg39pOsjJb7E-75" style="edgeStyle=orthogonalEdgeStyle;rounded=0;orthogonalLoop=1;jettySize=auto;html=1;exitX=0.5;exitY=1;exitDx=0;exitDy=0;" edge="1" parent="1" source="yPrxOtmndg39pOsjJb7E-71">
          <mxGeometry relative="1" as="geometry">
            <mxPoint x="410" y="630" as="targetPoint" />
          </mxGeometry>
        </mxCell>
        <mxCell id="yPrxOtmndg39pOsjJb7E-76" value="" style="childLayout=tableLayout;recursiveResize=0;shadow=0;fillColor=none;" vertex="1" parent="1">
          <mxGeometry x="30" y="90" width="760" height="140" as="geometry" />
        </mxCell>
        <mxCell id="yPrxOtmndg39pOsjJb7E-77" value="" style="shape=tableRow;horizontal=0;startSize=0;swimlaneHead=0;swimlaneBody=0;top=0;left=0;bottom=0;right=0;dropTarget=0;collapsible=0;recursiveResize=0;expand=0;fontStyle=0;fillColor=none;strokeColor=inherit;" vertex="1" parent="yPrxOtmndg39pOsjJb7E-76">
          <mxGeometry width="760" height="47" as="geometry" />
        </mxCell>
        <mxCell id="yPrxOtmndg39pOsjJb7E-78" value="" style="connectable=0;recursiveResize=0;strokeColor=inherit;fillColor=none;align=center;whiteSpace=wrap;html=1;" vertex="1" parent="yPrxOtmndg39pOsjJb7E-77">
          <mxGeometry width="320" height="47" as="geometry">
            <mxRectangle width="320" height="47" as="alternateBounds" />
          </mxGeometry>
        </mxCell>
        <mxCell id="yPrxOtmndg39pOsjJb7E-79" value="" style="connectable=0;recursiveResize=0;strokeColor=inherit;fillColor=none;align=center;whiteSpace=wrap;html=1;" vertex="1" parent="yPrxOtmndg39pOsjJb7E-77">
          <mxGeometry x="320" width="187" height="47" as="geometry">
            <mxRectangle width="187" height="47" as="alternateBounds" />
          </mxGeometry>
        </mxCell>
        <mxCell id="yPrxOtmndg39pOsjJb7E-80" value="" style="connectable=0;recursiveResize=0;strokeColor=inherit;fillColor=none;align=center;whiteSpace=wrap;html=1;" vertex="1" parent="yPrxOtmndg39pOsjJb7E-77">
          <mxGeometry x="507" width="253" height="47" as="geometry">
            <mxRectangle width="253" height="47" as="alternateBounds" />
          </mxGeometry>
        </mxCell>
        <mxCell id="yPrxOtmndg39pOsjJb7E-81" style="shape=tableRow;horizontal=0;startSize=0;swimlaneHead=0;swimlaneBody=0;top=0;left=0;bottom=0;right=0;dropTarget=0;collapsible=0;recursiveResize=0;expand=0;fontStyle=0;fillColor=none;strokeColor=inherit;" vertex="1" parent="yPrxOtmndg39pOsjJb7E-76">
          <mxGeometry y="47" width="760" height="46" as="geometry" />
        </mxCell>
        <mxCell id="yPrxOtmndg39pOsjJb7E-82" value="" style="connectable=0;recursiveResize=0;strokeColor=inherit;fillColor=none;align=center;whiteSpace=wrap;html=1;" vertex="1" parent="yPrxOtmndg39pOsjJb7E-81">
          <mxGeometry width="320" height="46" as="geometry">
            <mxRectangle width="320" height="46" as="alternateBounds" />
          </mxGeometry>
        </mxCell>
        <mxCell id="yPrxOtmndg39pOsjJb7E-83" value="" style="connectable=0;recursiveResize=0;strokeColor=inherit;fillColor=none;align=center;whiteSpace=wrap;html=1;" vertex="1" parent="yPrxOtmndg39pOsjJb7E-81">
          <mxGeometry x="320" width="187" height="46" as="geometry">
            <mxRectangle width="187" height="46" as="alternateBounds" />
          </mxGeometry>
        </mxCell>
        <mxCell id="yPrxOtmndg39pOsjJb7E-84" value="" style="connectable=0;recursiveResize=0;strokeColor=inherit;fillColor=none;align=center;whiteSpace=wrap;html=1;" vertex="1" parent="yPrxOtmndg39pOsjJb7E-81">
          <mxGeometry x="507" width="253" height="46" as="geometry">
            <mxRectangle width="253" height="46" as="alternateBounds" />
          </mxGeometry>
        </mxCell>
        <mxCell id="yPrxOtmndg39pOsjJb7E-85" style="shape=tableRow;horizontal=0;startSize=0;swimlaneHead=0;swimlaneBody=0;top=0;left=0;bottom=0;right=0;dropTarget=0;collapsible=0;recursiveResize=0;expand=0;fontStyle=0;fillColor=none;strokeColor=inherit;" vertex="1" parent="yPrxOtmndg39pOsjJb7E-76">
          <mxGeometry y="93" width="760" height="47" as="geometry" />
        </mxCell>
        <mxCell id="yPrxOtmndg39pOsjJb7E-86" value="" style="connectable=0;recursiveResize=0;strokeColor=inherit;fillColor=none;align=center;whiteSpace=wrap;html=1;" vertex="1" parent="yPrxOtmndg39pOsjJb7E-85">
          <mxGeometry width="320" height="47" as="geometry">
            <mxRectangle width="320" height="47" as="alternateBounds" />
          </mxGeometry>
        </mxCell>
        <mxCell id="yPrxOtmndg39pOsjJb7E-87" value="" style="connectable=0;recursiveResize=0;strokeColor=inherit;fillColor=none;align=center;whiteSpace=wrap;html=1;" vertex="1" parent="yPrxOtmndg39pOsjJb7E-85">
          <mxGeometry x="320" width="187" height="47" as="geometry">
            <mxRectangle width="187" height="47" as="alternateBounds" />
          </mxGeometry>
        </mxCell>
        <mxCell id="yPrxOtmndg39pOsjJb7E-88" value="" style="connectable=0;recursiveResize=0;strokeColor=inherit;fillColor=none;align=center;whiteSpace=wrap;html=1;" vertex="1" parent="yPrxOtmndg39pOsjJb7E-85">
          <mxGeometry x="507" width="253" height="47" as="geometry">
            <mxRectangle width="253" height="47" as="alternateBounds" />
          </mxGeometry>
        </mxCell>
        <mxCell id="yPrxOtmndg39pOsjJb7E-91" value="Linguagem de ProgramaÃ§Ã£o&#xa;&#xa;Â Â Â Â &#xa;Modelagem de DadosÂ Â Â Â Â Â Â Â &#xa;&#xa;&#xa;LÃ³gica e MatemÃ¡tica ComputacionalÂ Â Â Â Â Â Â Â &#xa;&#xa;&#xa;Algoritmos e ProgramaÃ§Ã£o EstruturadaÂ Â Â Â &#xa;&#xa;Â Â Â Â &#xa;ProgramaÃ§Ã£o e Desenvolvimento de Banco de DadosÂ Â Â Â Â Â Â Â &#xa;&#xa;&#xa;Â  Â  Â  Â &#xa;&#xa;&#xa;Sociedade Brasileira e Cidadania&#xa;Â Â Â Â &#xa;Sistemas OperacionaisÂ Â Â Â &#xa;&#xa;&#xa;Redes de ComputadoresÂ Â Â Â &#xa;&#xa;&#xa;&#xa;GovernanÃ§a CorporativaÂ Â Â Â &#xa;&#xa;&#xa;" style="text;whiteSpace=wrap;spacingTop=30;" vertex="1" parent="1">
          <mxGeometry x="40" y="70" width="330" height="500" as="geometry" />
        </mxCell>
        <mxCell id="yPrxOtmndg39pOsjJb7E-94" value="" style="shape=image;html=1;verticalAlign=top;verticalLabelPosition=bottom;labelBackgroundColor=#ffffff;imageAspect=0;aspect=fixed;image=https://cdn4.iconfinder.com/data/icons/universal-7/614/11_-_Valid-128.png" vertex="1" parent="1">
          <mxGeometry x="414" y="320" width="84" height="84" as="geometry" />
        </mxCell>
        <mxCell id="yPrxOtmndg39pOsjJb7E-96" value="" style="shape=image;html=1;verticalAlign=top;verticalLabelPosition=bottom;labelBackgroundColor=#ffffff;imageAspect=0;aspect=fixed;image=https://cdn4.iconfinder.com/data/icons/universal-7/614/11_-_Valid-128.png" vertex="1" parent="1">
          <mxGeometry x="414" y="450" width="84" height="84" as="geometry" />
        </mxCell>
        <mxCell id="yPrxOtmndg39pOsjJb7E-97" value="" style="shape=image;html=1;verticalAlign=top;verticalLabelPosition=bottom;labelBackgroundColor=#ffffff;imageAspect=0;aspect=fixed;image=https://cdn4.iconfinder.com/data/icons/universal-7/614/11_-_Valid-128.png" vertex="1" parent="1">
          <mxGeometry x="400" y="70" width="84" height="84" as="geometry" />
        </mxCell>
        <mxCell id="yPrxOtmndg39pOsjJb7E-98" value="" style="shape=image;html=1;verticalAlign=top;verticalLabelPosition=bottom;labelBackgroundColor=#ffffff;imageAspect=0;aspect=fixed;image=https://cdn4.iconfinder.com/data/icons/universal-7/614/11_-_Valid-128.png" vertex="1" parent="1">
          <mxGeometry x="405" y="210" width="74" height="74" as="geometry" />
        </mxCell>
        <mxCell id="yPrxOtmndg39pOsjJb7E-99" value="" style="shape=image;html=1;verticalAlign=top;verticalLabelPosition=bottom;labelBackgroundColor=#ffffff;imageAspect=0;aspect=fixed;image=https://cdn4.iconfinder.com/data/icons/universal-7/614/11_-_Valid-128.png" vertex="1" parent="1">
          <mxGeometry x="414" y="363" width="84" height="84" as="geometry" />
        </mxCell>
      </root>
    </mxGraphModel>
  </diagram>
</mxfile>
